<?xml version="1.0" encoding="utf-8"?>
<!-- Generator: Adobe Illustrator 24.3.0, SVG Export Plug-In . SVG Version: 6.00 Build 0)  -->
<svg version="1.1" id="Layer_1" xmlns="http://www.w3.org/2000/svg" xmlns:xlink="http://www.w3.org/1999/xlink" x="0px" y="0px"
	 viewBox="0 0 50 50" style="enable-background:new 0 0 50 50;" xml:space="preserve">
<style type="text/css">
	.st0{fill-rule:evenodd;clip-rule:evenodd;fill:#E75B27;}
</style>
<path class="st0" d="M26.1,4.5c-7.6,0.7-9.7-1.4-14.7-0.9C8,4,5.3,5.5,3.7,9.3c-3.6,8.3,9.1,37.3,12.9,35.6
	c3.4-1.6,4.2-12.7,9.8-10.2c4.8,2.2,4.4,17.3,11.2,7.2c2.7-4,10-19.8,9.5-29.7c-0.4-8-7.4-11.3-14.3-7.7c-3.1,1.6-6.5,4-14.2,4.1
	c8.9-3.2,6.9-3.1,13.2-6.3C38.7-1.5,47,0.6,49.5,8.3c2.7,8.4-5.6,35-13,39.4c-6.5,3.9-8.6-3.8-10.3-7.8c-1.1-2.6-1.5-2.7-2.6,0
	c-1.2,3.2-2.5,8.7-7.6,8.6c-7.6-0.3-14.8-26.3-15.7-32C-1,7.7,2.5,2.1,8.2,1C15.5-0.4,20.9,4,26.1,4.5L26.1,4.5z"/>
</svg>
