<?xml version="1.0" encoding="utf-8"?>
<!-- Generator: Adobe Illustrator 24.3.0, SVG Export Plug-In . SVG Version: 6.00 Build 0)  -->
<svg version="1.1" id="Layer_1" xmlns="http://www.w3.org/2000/svg" xmlns:xlink="http://www.w3.org/1999/xlink" x="0px" y="0px"
	 viewBox="0 0 300 110" style="enable-background:new 0 0 300 110;" xml:space="preserve">
<style type="text/css">
	.st0{fill:#49494A;}
	.st1{fill:#E75B27;}
</style>
<g>
	<g>
		<g>
			<path class="st0" d="M9.7,35.3c0.9,0.1,1.6,0,2.3-0.4c0.7-0.4,1.2-0.9,1.7-1.5c0.4-0.6,0.8-1.3,1-2.1s0.4-1.6,0.5-2.4
				c0.1-0.8,0.1-1.6,0-2.5c-0.1-0.8-0.3-1.6-0.5-2.2c-0.4-1.1-1-2.1-1.8-2.9c-0.8-0.9-1.7-1.5-2.9-1.9c0,0-0.2-0.1-0.3-0.1
				c-0.2,0-0.3-0.1-0.3-0.1c-0.1,0-0.2,0-0.3-0.1C9,19,8.9,19,8.8,18.9c-0.1,0-0.2,0-0.3-0.1c-0.1,0-0.1,0-0.1,0h-5v17.1H2.6V18.2
				c0.9,0,1.9,0,2.9,0c1,0,2,0,2.9,0c0.4,0,0.9,0.1,1.3,0.3c0.4,0.1,0.8,0.3,1.3,0.5c0.3,0.1,0.6,0.3,0.9,0.5
				c0.3,0.2,0.6,0.4,0.8,0.6c0.8,0.7,1.4,1.5,1.9,2.5c0.5,0.9,0.8,1.9,1,2.9c0.2,0.9,0.2,1.8,0.2,2.8c0,1-0.2,1.9-0.5,2.8
				c-0.3,0.9-0.7,1.7-1.2,2.5c-0.5,0.8-1.2,1.4-2.1,1.9c-0.3,0.2-0.7,0.3-1.2,0.4c-0.4,0-0.9,0-1.3,0V35.3z"/>
			<path class="st0" d="M19.2,22.8v3.8h0.1c0.3-0.5,0.7-1.1,1.1-1.5c0.4-0.5,0.9-0.9,1.5-1.3c0.5-0.4,1.1-0.6,1.7-0.8
				c0.6-0.2,1.3-0.3,1.9-0.2v0.6c-0.7,0-1.4,0.1-2.1,0.4c-0.7,0.2-1.3,0.6-1.8,1c-0.5,0.4-1,0.9-1.4,1.5c-0.4,0.6-0.7,1.2-0.8,2
				c0,0,0,0.1,0,0.3c0,0.2,0,0.3,0,0.3c0,0.1,0,0.2,0,0.4c0,0.2,0,0.3,0,0.3v6.3h-0.6V22.8H19.2z"/>
			<path class="st0" d="M32.9,36.1c-0.9-0.1-1.8-0.4-2.6-0.9c-0.8-0.5-1.5-1.1-2-1.8c-0.6-0.9-1-1.8-1.2-2.8c-0.2-0.9-0.2-1.9,0-2.7
				c0.2-0.9,0.5-1.7,1-2.5c0.5-0.8,1.1-1.4,1.8-1.9c0.7-0.5,1.6-0.9,2.5-1.1c0.9-0.2,1.9-0.2,3,0c1.2,0.3,2.2,0.8,2.9,1.5
				c0.8,0.7,1.5,1.6,2.1,2.5v-4h0.6v13.5h-0.6V32c-0.8,1.4-1.8,2.5-3,3.3C36,36,34.6,36.3,32.9,36.1z M32.8,35.4
				c0.6,0.1,1.2,0.1,1.8,0.1c0.6-0.1,1.2-0.2,1.8-0.5c0.8-0.4,1.5-0.9,2-1.4c0.6-0.6,1-1.2,1.3-1.9c0.3-0.7,0.5-1.4,0.5-2.2
				c0-0.7,0-1.5-0.3-2.2c-0.2-0.7-0.6-1.4-1.1-2c-0.5-0.6-1.1-1.2-1.9-1.6c-0.6-0.3-1.3-0.6-2-0.7c-0.7-0.1-1.4-0.1-2.1,0
				c-0.9,0.2-1.7,0.5-2.5,1c-0.8,0.5-1.4,1.1-1.8,1.9c-0.4,0.8-0.7,1.6-0.8,2.4c-0.2,0.8-0.1,1.7,0.1,2.5c0.3,1.2,1,2.2,1.9,3
				C30.5,34.7,31.6,35.2,32.8,35.4z"/>
			<path class="st0" d="M45.4,34.6v1.3h-1.3v-1.3H45.4z"/>
		</g>
	</g>
	<g>
		<g>
			<path class="st1" d="M1,44.6v26.2h11.5v0.9H0V44.6H1z"/>
			<path class="st0" d="M23.4,72.2c-1-0.2-1.9-0.5-2.8-0.9c-0.9-0.4-1.7-1-2.4-1.6c-0.7-0.6-1.3-1.4-1.9-2.2
				c-0.5-0.8-0.9-1.7-1.2-2.6c0,0-0.1-0.1-0.1-0.2c0-0.1-0.1-0.3-0.1-0.4c0-0.2-0.1-0.3-0.1-0.4c0-0.1-0.1-0.2-0.1-0.3
				c0-0.1,0-0.2,0-0.3c0-0.1,0-0.2,0-0.3v-18h0.9v17.4c0,0.8,0.2,1.7,0.5,2.6c0.3,0.9,0.7,1.7,1.2,2.4c0.7,0.9,1.4,1.7,2.3,2.3
				c0.9,0.6,1.8,1.1,2.8,1.4c1,0.3,2,0.5,3,0.4c1,0,2-0.2,3-0.5c1-0.3,1.9-0.8,2.7-1.5c0.9-0.7,1.6-1.5,2.2-2.5
				c0.5-0.8,0.8-1.6,1.1-2.4c0.1-0.2,0.1-0.5,0.2-0.9c0.1-0.4,0.2-0.6,0.2-0.6V44.9h0.9v17.6c0,0.5-0.1,1-0.2,1.5
				c-0.1,0.5-0.3,1-0.4,1.4c-0.4,1.2-1.1,2.3-1.9,3.2c-0.8,0.9-1.7,1.7-2.8,2.3c-1.1,0.6-2.2,1-3.4,1.2
				C25.9,72.4,24.7,72.4,23.4,72.2z"/>
			<path class="st0" d="M51.5,71.8c-1.6-0.2-3.1-0.6-4.5-1.4c-1.4-0.8-2.6-1.8-3.7-3c-0.6-0.6-1.1-1.3-1.5-2.1
				c-0.4-0.8-0.8-1.5-1.1-2.4c-0.6-1.5-0.8-3.1-0.8-4.6c0-1.6,0.3-3.1,0.8-4.5c0.5-1.4,1.2-2.7,2.1-4c0.9-1.2,2-2.2,3.2-3.1
				c1.2-0.8,2.6-1.4,4.1-1.8c1.5-0.4,3.1-0.4,4.7-0.2c2,0.3,3.8,1.1,5.4,2.3c1.6,1.2,2.9,2.7,3.8,4.5c0.1,0.1,0.1,0.3,0.3,0.5
				c0.1,0.3,0.2,0.5,0.3,0.6c0,0.1,0,0.1,0.1,0.2c0.1,0.1,0.1,0.2,0.1,0.2c-0.1,0.1-0.3,0.1-0.4,0.2c-0.2,0.1-0.3,0.1-0.4,0.1
				c-0.4-1-0.9-1.8-1.4-2.6c-0.5-0.8-1.2-1.6-1.9-2.3c-1.4-1.3-3.1-2.2-4.9-2.6c-1.9-0.4-3.7-0.4-5.6,0c-1.5,0.4-2.9,1.1-4.2,2.1
				c-1.3,1-2.3,2.2-3.1,3.6c-0.8,1.4-1.3,2.9-1.5,4.4c-0.2,1.5-0.2,3,0,4.5c0.3,1.4,0.8,2.8,1.5,4.1c0.7,1.3,1.6,2.4,2.7,3.3
				c1.1,0.9,2.3,1.7,3.8,2.2c1.4,0.5,3,0.7,4.6,0.6c1.1-0.1,2.2-0.3,3.3-0.8c1.1-0.5,2-1.1,3-1.8c0.9-0.7,1.7-1.6,2.3-2.6
				c0.7-1,1.2-2,1.5-3l0.8,0.3v0.1c-0.2,0.6-0.5,1.2-0.7,1.8c-0.3,0.6-0.6,1.1-1,1.7c-0.7,0.9-1.4,1.8-2.3,2.5
				c-0.9,0.7-1.8,1.3-2.8,1.7c-1,0.4-2.1,0.8-3.1,1C53.7,71.8,52.6,71.9,51.5,71.8z"/>
			<path class="st0" d="M69.9,44.6v27.2H69V44.6H69.9z"/>
			<path class="st0" d="M74.3,71.7h-1.2L98,44.6h0.9v27.2H98V46.2L74.3,71.7z"/>
			<path class="st0" d="M104.7,44.6l16.3,7.5h0.2v-7.5h0.8v27.2h-0.8V53.2l-16.1-7.4c-0.1,0-0.1,0-0.2,0c-0.1,0-0.1,0-0.2,0v25.9h-1
				V44.6H104.7z"/>
			<path class="st0" d="M126.5,71.7h-1.2l24.9-27.1h0.9v27.2h-0.8V46.2L126.5,71.7z"/>
		</g>
	</g>
	<g>
		<g>
			<path class="st1" d="M177.8,95.4c0.1-0.1,0.1-0.2,0-0.3l-8-12.9h1.1l7.6,12.1l0.2-0.2l7.6-12h1.1L179.3,95
				c-0.1,0.1-0.1,0.2-0.2,0.2c0,0.1,0,0.1,0.1,0.3l8.5,13.8h-1.1l-8.1-13.1l-8.3,13.1H169L177.8,95.4z"/>
			<path class="st0" d="M191.7,109.3h-1.2l24.9-27.1h0.9v27.2h-0.8V83.8L191.7,109.3z"/>
			<path class="st0" d="M220.3,82.2h1l8.9,25.7l8.6-25.7h1l-9.1,27.2h-1.1L220.3,82.2z"/>
			<path class="st0" d="M244.6,82.2v27.2h-0.9V82.2H244.6z"/>
			<path class="st0" d="M266.4,82.2v0.8h-15.9v10.5h6.6v1h-6.6v13.9h15.5v0.9h-16.4V82.2H266.4z"/>
			<path class="st0" d="M281.3,102.3L281.3,102.3c-0.5,0.1-1,0.2-1.5,0.2c-0.5,0.1-0.9,0.1-1.4,0.1v-0.9c1.6-0.1,3.1-0.5,4.4-1.2
				c1.3-0.7,2.4-1.6,3.2-2.8c0.8-1.1,1.3-2.4,1.5-3.9c0.2-1.5,0-3-0.5-4.6c-0.5-1.3-1.3-2.5-2.4-3.5c-1.1-1-2.3-1.7-3.7-2.1
				c-0.1,0-0.2,0-0.5-0.1c-0.3-0.1-0.4-0.1-0.5-0.1c-0.1,0-0.1,0-0.3,0c-0.1,0-0.2,0-0.3,0h-8.2v25.9h-1V82.4h8.6c1,0,2,0.2,3,0.6
				c1,0.4,1.8,0.8,2.6,1.4c1.1,0.8,2,1.9,2.7,3.1c0.7,1.2,1.1,2.5,1.3,3.8c0.2,1.3,0.1,2.7-0.3,4c-0.4,1.3-1,2.6-1.9,3.7
				c-0.5,0.7-1.1,1.2-1.8,1.7c-0.7,0.5-1.4,0.9-2.1,1.3v0.1l5.5,7.4h-1.1L281.3,102.3z"/>
		</g>
	</g>
	<g>
		<g>
			<path class="st1" d="M300,9.9c0,0-76.3,53.4-150.6-9.3C149.4,0.6,197.1,79.7,300,9.9z"/>
			<path class="st1" d="M166.1,32.2c0,0,26.9,69.9,131.8-20.3C297.9,11.9,177.6,135.3,166.1,32.2z"/>
		</g>
	</g>
</g>
</svg>
